<!--?xml version="1.0" encoding="us-ascii" standalone="no"?--><svg xmlns="http://www.w3.org/2000/svg" xmlns:xlink="http://www.w3.org/1999/xlink" contentstyletype="text/css" height="695px" preserveAspectRatio="none" style="width:1163px;height:695px;background:#FFFFFF;" version="1.1" viewBox="0 0 1163 695" width="1163px" zoomAndPan="magnify"><defs></defs><g><!--class MainScreen--><g id="elem_MainScreen"><rect codeline="1" fill="#F1F1F1" height="194.6719" id="MainScreen" rx="2.5" ry="2.5" style="stroke:#181818;stroke-width:0.5;" width="289" x="613.5" y="7"></rect><ellipse cx="713.25" cy="23" fill="#ADD1B2" rx="11" ry="11" style="stroke:#181818;stroke-width:1.0;"></ellipse><path d="M716.2188,28.6406 Q715.6406,28.9375 715,29.0781 Q714.3594,29.2344 713.6563,29.2344 Q711.1563,29.2344 709.8281,27.5938 Q708.5156,25.9375 708.5156,22.8125 Q708.5156,19.6875 709.8281,18.0313 Q711.1563,16.375 713.6563,16.375 Q714.3594,16.375 715,16.5313 Q715.6563,16.6875 716.2188,16.9844 L716.2188,19.7031 Q715.5938,19.125 715,18.8594 Q714.4063,18.5781 713.7813,18.5781 Q712.4375,18.5781 711.75,19.6563 Q711.0625,20.7188 711.0625,22.8125 Q711.0625,24.9063 711.75,25.9844 Q712.4375,27.0469 713.7813,27.0469 Q714.4063,27.0469 715,26.7813 Q715.5938,26.5 716.2188,25.9219 L716.2188,28.6406 Z " fill="#000000"></path><text fill="#000000" font-family="sans-serif" font-size="14" lengthAdjust="spacing" textLength="81" x="733.75" y="27.8467">MainScreen</text><line style="stroke:#181818;stroke-width:0.5;" x1="614.5" x2="901.5" y1="39" y2="39"></line><rect fill="none" height="6" style="stroke:#C82930;stroke-width:1.0;" width="6" x="621.5" y="49.6484"></rect><text fill="#000000" font-family="sans-serif" font-size="14" lengthAdjust="spacing" textLength="146" x="633.5" y="55.9951">pauseButton: Button</text><rect fill="none" height="6" style="stroke:#C82930;stroke-width:1.0;" width="6" x="621.5" y="65.9453"></rect><text fill="#000000" font-family="sans-serif" font-size="14" lengthAdjust="spacing" textLength="192" x="633.5" y="72.292">mathProblem: MathProblem</text><rect fill="none" height="6" style="stroke:#C82930;stroke-width:1.0;" width="6" x="621.5" y="82.2422"></rect><text fill="#000000" font-family="sans-serif" font-size="14" lengthAdjust="spacing" textLength="119" x="633.5" y="88.5889">counter: Counter</text><rect fill="none" height="6" style="stroke:#C82930;stroke-width:1.0;" width="6" x="621.5" y="98.5391"></rect><text fill="#000000" font-family="sans-serif" font-size="14" lengthAdjust="spacing" textLength="231" x="633.5" y="104.8857">answerButtons[3]: AnswerButton</text><rect fill="none" height="6" style="stroke:#C82930;stroke-width:1.0;" width="6" x="621.5" y="114.8359"></rect><text fill="#000000" font-family="sans-serif" font-size="14" lengthAdjust="spacing" textLength="125" x="633.5" y="121.1826">happyEmoji: Emoji</text><rect fill="none" height="6" style="stroke:#C82930;stroke-width:1.0;" width="6" x="621.5" y="131.1328"></rect><text fill="#000000" font-family="sans-serif" font-size="14" lengthAdjust="spacing" textLength="108" x="633.5" y="137.4795">sadEmoji: Emoji</text><line style="stroke:#181818;stroke-width:0.5;" x1="614.5" x2="901.5" y1="144.7813" y2="144.7813"></line><ellipse cx="624.5" cy="158.4297" fill="#84BE84" rx="3" ry="3" style="stroke:#038048;stroke-width:1.0;"></ellipse><text fill="#000000" font-family="sans-serif" font-size="14" lengthAdjust="spacing" textLength="131" x="633.5" y="161.7764">pauseGame(): void</text><ellipse cx="624.5" cy="174.7266" fill="#84BE84" rx="3" ry="3" style="stroke:#038048;stroke-width:1.0;"></ellipse><text fill="#000000" font-family="sans-serif" font-size="14" lengthAdjust="spacing" textLength="181" x="633.5" y="178.0732">displayNewProblem(): void</text><ellipse cx="624.5" cy="191.0234" fill="#84BE84" rx="3" ry="3" style="stroke:#038048;stroke-width:1.0;"></ellipse><text fill="#000000" font-family="sans-serif" font-size="14" lengthAdjust="spacing" textLength="263" x="633.5" y="194.3701">updateScore(isCorrect: boolean): void</text></g><!--class PauseMenu--><g id="elem_PauseMenu"><rect codeline="13" fill="#F1F1F1" height="113.1875" id="PauseMenu" rx="2.5" ry="2.5" style="stroke:#181818;stroke-width:0.5;" width="182" x="7" y="261.67"></rect><ellipse cx="52.75" cy="277.67" fill="#ADD1B2" rx="11" ry="11" style="stroke:#181818;stroke-width:1.0;"></ellipse><path d="M55.7188,283.3106 Q55.1406,283.6075 54.5,283.7481 Q53.8594,283.9044 53.1563,283.9044 Q50.6563,283.9044 49.3281,282.2637 Q48.0156,280.6075 48.0156,277.4825 Q48.0156,274.3575 49.3281,272.7012 Q50.6563,271.045 53.1563,271.045 Q53.8594,271.045 54.5,271.2012 Q55.1563,271.3575 55.7188,271.6544 L55.7188,274.3731 Q55.0938,273.795 54.5,273.5294 Q53.9063,273.2481 53.2813,273.2481 Q51.9375,273.2481 51.25,274.3262 Q50.5625,275.3887 50.5625,277.4825 Q50.5625,279.5762 51.25,280.6544 Q51.9375,281.7169 53.2813,281.7169 Q53.9063,281.7169 54.5,281.4512 Q55.0938,281.17 55.7188,280.5919 L55.7188,283.3106 Z " fill="#000000"></path><text fill="#000000" font-family="sans-serif" font-size="14" lengthAdjust="spacing" textLength="82" x="73.25" y="282.5167">PauseMenu</text><line style="stroke:#181818;stroke-width:0.5;" x1="8" x2="188" y1="293.67" y2="293.67"></line><rect fill="none" height="6" style="stroke:#C82930;stroke-width:1.0;" width="6" x="15" y="304.3184"></rect><text fill="#000000" font-family="sans-serif" font-size="14" lengthAdjust="spacing" textLength="156" x="27" y="310.6651">resumeButton: Button</text><rect fill="none" height="6" style="stroke:#C82930;stroke-width:1.0;" width="6" x="15" y="320.6153"></rect><text fill="#000000" font-family="sans-serif" font-size="14" lengthAdjust="spacing" textLength="129" x="27" y="326.962">quitButton: Button</text><line style="stroke:#181818;stroke-width:0.5;" x1="8" x2="188" y1="334.2637" y2="334.2637"></line><ellipse cx="18" cy="347.9122" fill="#84BE84" rx="3" ry="3" style="stroke:#038048;stroke-width:1.0;"></ellipse><text fill="#000000" font-family="sans-serif" font-size="14" lengthAdjust="spacing" textLength="141" x="27" y="351.2589">resumeGame(): void</text><ellipse cx="18" cy="364.2091" fill="#84BE84" rx="3" ry="3" style="stroke:#038048;stroke-width:1.0;"></ellipse><text fill="#000000" font-family="sans-serif" font-size="14" lengthAdjust="spacing" textLength="114" x="27" y="367.5557">quitGame(): void</text></g><!--class MathProblem--><g id="elem_MathProblem"><rect codeline="20" fill="#F1F1F1" height="96.8906" id="MathProblem" rx="2.5" ry="2.5" style="stroke:#181818;stroke-width:0.5;" width="193" x="224.5" y="269.82"></rect><ellipse cx="271.25" cy="285.82" fill="#ADD1B2" rx="11" ry="11" style="stroke:#181818;stroke-width:1.0;"></ellipse><path d="M274.2188,291.4606 Q273.6406,291.7575 273,291.8981 Q272.3594,292.0544 271.6563,292.0544 Q269.1563,292.0544 267.8281,290.4138 Q266.5156,288.7575 266.5156,285.6325 Q266.5156,282.5075 267.8281,280.8513 Q269.1563,279.195 271.6563,279.195 Q272.3594,279.195 273,279.3513 Q273.6563,279.5075 274.2188,279.8044 L274.2188,282.5231 Q273.5938,281.945 273,281.6794 Q272.4063,281.3981 271.7813,281.3981 Q270.4375,281.3981 269.75,282.4763 Q269.0625,283.5388 269.0625,285.6325 Q269.0625,287.7263 269.75,288.8044 Q270.4375,289.8669 271.7813,289.8669 Q272.4063,289.8669 273,289.6013 Q273.5938,289.32 274.2188,288.7419 L274.2188,291.4606 Z " fill="#000000"></path><text fill="#000000" font-family="sans-serif" font-size="14" lengthAdjust="spacing" textLength="91" x="291.75" y="290.6667">MathProblem</text><line style="stroke:#181818;stroke-width:0.5;" x1="225.5" x2="416.5" y1="301.82" y2="301.82"></line><rect fill="none" height="6" style="stroke:#C82930;stroke-width:1.0;" width="6" x="232.5" y="312.4684"></rect><text fill="#000000" font-family="sans-serif" font-size="14" lengthAdjust="spacing" textLength="71" x="244.5" y="318.8151">value1: int</text><rect fill="none" height="6" style="stroke:#C82930;stroke-width:1.0;" width="6" x="232.5" y="328.7653"></rect><text fill="#000000" font-family="sans-serif" font-size="14" lengthAdjust="spacing" textLength="71" x="244.5" y="335.112">value2: int</text><line style="stroke:#181818;stroke-width:0.5;" x1="225.5" x2="416.5" y1="342.4138" y2="342.4138"></line><ellipse cx="235.5" cy="356.0622" fill="#84BE84" rx="3" ry="3" style="stroke:#038048;stroke-width:1.0;"></ellipse><text fill="#000000" font-family="sans-serif" font-size="14" lengthAdjust="spacing" textLength="167" x="244.5" y="359.4089">generateProblem(): void</text></g><!--class Counter--><g id="elem_Counter"><rect codeline="26" fill="#F1F1F1" height="96.8906" id="Counter" rx="2.5" ry="2.5" style="stroke:#181818;stroke-width:0.5;" width="183" x="452.5" y="269.82"></rect><ellipse cx="511.75" cy="285.82" fill="#ADD1B2" rx="11" ry="11" style="stroke:#181818;stroke-width:1.0;"></ellipse><path d="M514.7188,291.4606 Q514.1406,291.7575 513.5,291.8981 Q512.8594,292.0544 512.1563,292.0544 Q509.6563,292.0544 508.3281,290.4138 Q507.0156,288.7575 507.0156,285.6325 Q507.0156,282.5075 508.3281,280.8513 Q509.6563,279.195 512.1563,279.195 Q512.8594,279.195 513.5,279.3513 Q514.1563,279.5075 514.7188,279.8044 L514.7188,282.5231 Q514.0938,281.945 513.5,281.6794 Q512.9063,281.3981 512.2813,281.3981 Q510.9375,281.3981 510.25,282.4763 Q509.5625,283.5388 509.5625,285.6325 Q509.5625,287.7263 510.25,288.8044 Q510.9375,289.8669 512.2813,289.8669 Q512.9063,289.8669 513.5,289.6013 Q514.0938,289.32 514.7188,288.7419 L514.7188,291.4606 Z " fill="#000000"></path><text fill="#000000" font-family="sans-serif" font-size="14" lengthAdjust="spacing" textLength="56" x="532.25" y="290.6667">Counter</text><line style="stroke:#181818;stroke-width:0.5;" x1="453.5" x2="634.5" y1="301.82" y2="301.82"></line><rect fill="none" height="6" style="stroke:#C82930;stroke-width:1.0;" width="6" x="460.5" y="312.4684"></rect><text fill="#000000" font-family="sans-serif" font-size="14" lengthAdjust="spacing" textLength="116" x="472.5" y="318.8151">currentScore: int</text><line style="stroke:#181818;stroke-width:0.5;" x1="453.5" x2="634.5" y1="326.1169" y2="326.1169"></line><ellipse cx="463.5" cy="339.7653" fill="#84BE84" rx="3" ry="3" style="stroke:#038048;stroke-width:1.0;"></ellipse><text fill="#000000" font-family="sans-serif" font-size="14" lengthAdjust="spacing" textLength="157" x="472.5" y="343.112">incrementScore(): void</text><ellipse cx="463.5" cy="356.0622" fill="#84BE84" rx="3" ry="3" style="stroke:#038048;stroke-width:1.0;"></ellipse><text fill="#000000" font-family="sans-serif" font-size="14" lengthAdjust="spacing" textLength="151" x="472.5" y="359.4089">getCurrentScore(): int</text></g><!--class Button--><g id="elem_Button"><rect codeline="32" fill="#F1F1F1" height="96.8906" id="Button" rx="2.5" ry="2.5" style="stroke:#181818;stroke-width:0.5;" width="170" x="604" y="434.86"></rect><ellipse cx="661.25" cy="450.86" fill="#ADD1B2" rx="11" ry="11" style="stroke:#181818;stroke-width:1.0;"></ellipse><path d="M664.2188,456.5006 Q663.6406,456.7975 663,456.9381 Q662.3594,457.0944 661.6563,457.0944 Q659.1563,457.0944 657.8281,455.4538 Q656.5156,453.7975 656.5156,450.6725 Q656.5156,447.5475 657.8281,445.8913 Q659.1563,444.235 661.6563,444.235 Q662.3594,444.235 663,444.3913 Q663.6563,444.5475 664.2188,444.8444 L664.2188,447.5631 Q663.5938,446.985 663,446.7194 Q662.4063,446.4381 661.7813,446.4381 Q660.4375,446.4381 659.75,447.5163 Q659.0625,448.5788 659.0625,450.6725 Q659.0625,452.7663 659.75,453.8444 Q660.4375,454.9069 661.7813,454.9069 Q662.4063,454.9069 663,454.6413 Q663.5938,454.36 664.2188,453.7819 L664.2188,456.5006 Z " fill="#000000"></path><text fill="#000000" font-family="sans-serif" font-size="14" lengthAdjust="spacing" textLength="47" x="681.75" y="455.7067">Button</text><line style="stroke:#181818;stroke-width:0.5;" x1="605" x2="773" y1="466.86" y2="466.86"></line><rect fill="none" height="6" style="stroke:#C82930;stroke-width:1.0;" width="6" x="612" y="477.5084"></rect><text fill="#000000" font-family="sans-serif" font-size="14" lengthAdjust="spacing" textLength="81" x="624" y="483.8551">label: String</text><rect fill="none" height="6" style="stroke:#C82930;stroke-width:1.0;" width="6" x="612" y="493.8053"></rect><text fill="#000000" font-family="sans-serif" font-size="14" lengthAdjust="spacing" textLength="94" x="624" y="500.152">action: Action</text><line style="stroke:#181818;stroke-width:0.5;" x1="605" x2="773" y1="507.4538" y2="507.4538"></line><ellipse cx="615" cy="521.1022" fill="#84BE84" rx="3" ry="3" style="stroke:#038048;stroke-width:1.0;"></ellipse><text fill="#000000" font-family="sans-serif" font-size="14" lengthAdjust="spacing" textLength="144" x="624" y="524.4489">performAction(): void</text></g><!--class Action--><g id="elem_Action"><rect codeline="38" fill="#F1F1F1" height="64.2969" id="Action" rx="2.5" ry="2.5" style="stroke:#181818;stroke-width:0.5;" width="170" x="742" y="286.12"></rect><ellipse cx="801.25" cy="302.12" fill="#B4A7E5" rx="11" ry="11" style="stroke:#181818;stroke-width:1.0;"></ellipse><path d="M797.1719,297.8856 L797.1719,295.7294 L804.5625,295.7294 L804.5625,297.8856 L802.0938,297.8856 L802.0938,305.9638 L804.5625,305.9638 L804.5625,308.12 L797.1719,308.12 L797.1719,305.9638 L799.6406,305.9638 L799.6406,297.8856 L797.1719,297.8856 Z " fill="#000000"></path><text fill="#000000" font-family="sans-serif" font-size="14" font-style="italic" lengthAdjust="spacing" textLength="43" x="821.75" y="306.9667">Action</text><line style="stroke:#181818;stroke-width:0.5;" x1="743" x2="911" y1="318.12" y2="318.12"></line><line style="stroke:#181818;stroke-width:0.5;" x1="743" x2="911" y1="326.12" y2="326.12"></line><ellipse cx="753" cy="339.7684" fill="#84BE84" rx="3" ry="3" style="stroke:#038048;stroke-width:1.0;"></ellipse><text fill="#000000" font-family="sans-serif" font-size="14" lengthAdjust="spacing" textLength="144" x="762" y="343.1151">performAction(): void</text></g><!--class AnswerButton--><g id="elem_AnswerButton"><rect codeline="42" fill="#F1F1F1" height="96.8906" id="AnswerButton" rx="2.5" ry="2.5" style="stroke:#181818;stroke-width:0.5;" width="166" x="899" y="591.75"></rect><ellipse cx="930.2" cy="607.75" fill="#ADD1B2" rx="11" ry="11" style="stroke:#181818;stroke-width:1.0;"></ellipse><path d="M933.1688,613.3906 Q932.5906,613.6875 931.95,613.8281 Q931.3094,613.9844 930.6063,613.9844 Q928.1063,613.9844 926.7781,612.3438 Q925.4656,610.6875 925.4656,607.5625 Q925.4656,604.4375 926.7781,602.7813 Q928.1063,601.125 930.6063,601.125 Q931.3094,601.125 931.95,601.2813 Q932.6063,601.4375 933.1688,601.7344 L933.1688,604.4531 Q932.5438,603.875 931.95,603.6094 Q931.3563,603.3281 930.7313,603.3281 Q929.3875,603.3281 928.7,604.4063 Q928.0125,605.4688 928.0125,607.5625 Q928.0125,609.6563 928.7,610.7344 Q929.3875,611.7969 930.7313,611.7969 Q931.3563,611.7969 931.95,611.5313 Q932.5438,611.25 933.1688,610.6719 L933.1688,613.3906 Z " fill="#000000"></path><text fill="#000000" font-family="sans-serif" font-size="14" lengthAdjust="spacing" textLength="98" x="947.8" y="612.5967">AnswerButton</text><line style="stroke:#181818;stroke-width:0.5;" x1="900" x2="1064" y1="623.75" y2="623.75"></line><rect fill="none" height="6" style="stroke:#C82930;stroke-width:1.0;" width="6" x="907" y="634.3984"></rect><text fill="#000000" font-family="sans-serif" font-size="14" lengthAdjust="spacing" textLength="62" x="919" y="640.7451">value: int</text><rect fill="none" height="6" style="stroke:#C82930;stroke-width:1.0;" width="6" x="907" y="650.6953"></rect><text fill="#000000" font-family="sans-serif" font-size="14" lengthAdjust="spacing" textLength="127" x="919" y="657.042">isCorrect: boolean</text><line style="stroke:#181818;stroke-width:0.5;" x1="900" x2="1064" y1="664.3438" y2="664.3438"></line><ellipse cx="910" cy="677.9922" fill="#84BE84" rx="3" ry="3" style="stroke:#038048;stroke-width:1.0;"></ellipse><text fill="#000000" font-family="sans-serif" font-size="14" lengthAdjust="spacing" textLength="140" x="919" y="681.3389">selectAnswer(): void</text></g><!--class Emoji--><g id="elem_Emoji"><rect codeline="48" fill="#F1F1F1" height="64.2969" id="Emoji" rx="2.5" ry="2.5" style="stroke:#181818;stroke-width:0.5;" width="104" x="1052" y="286.12"></rect><ellipse cx="1082.75" cy="302.12" fill="#ADD1B2" rx="11" ry="11" style="stroke:#181818;stroke-width:1.0;"></ellipse><path d="M1085.7188,307.7606 Q1085.1406,308.0575 1084.5,308.1981 Q1083.8594,308.3544 1083.1563,308.3544 Q1080.6563,308.3544 1079.3281,306.7138 Q1078.0156,305.0575 1078.0156,301.9325 Q1078.0156,298.8075 1079.3281,297.1513 Q1080.6563,295.495 1083.1563,295.495 Q1083.8594,295.495 1084.5,295.6513 Q1085.1563,295.8075 1085.7188,296.1044 L1085.7188,298.8231 Q1085.0938,298.245 1084.5,297.9794 Q1083.9063,297.6981 1083.2813,297.6981 Q1081.9375,297.6981 1081.25,298.7763 Q1080.5625,299.8388 1080.5625,301.9325 Q1080.5625,304.0263 1081.25,305.1044 Q1081.9375,306.1669 1083.2813,306.1669 Q1083.9063,306.1669 1084.5,305.9013 Q1085.0938,305.62 1085.7188,305.0419 L1085.7188,307.7606 Z " fill="#000000"></path><text fill="#000000" font-family="sans-serif" font-size="14" lengthAdjust="spacing" textLength="37" x="1100.25" y="306.9667">Emoji</text><line style="stroke:#181818;stroke-width:0.5;" x1="1053" x2="1155" y1="318.12" y2="318.12"></line><rect fill="none" height="6" style="stroke:#C82930;stroke-width:1.0;" width="6" x="1060" y="328.7684"></rect><text fill="#000000" font-family="sans-serif" font-size="14" lengthAdjust="spacing" textLength="78" x="1072" y="335.1151">face: String</text><line style="stroke:#181818;stroke-width:0.5;" x1="1053" x2="1155" y1="342.4169" y2="342.4169"></line></g><!--reverse link Button to AnswerButton--><g id="link_Button_AnswerButton"><path codeline="53" d="M790.052,537.7247 C829.252,558.4547 859.69,574.54 898.67,595.14 " fill="none" id="Button-backto-AnswerButton" style="stroke:#181818;stroke-width:1.0;"></path><polygon fill="none" points="774.14,529.31,787.2471,543.0287,792.8569,532.4207,774.14,529.31" style="stroke:#181818;stroke-width:1.0;"></polygon></g><!--link MainScreen to Action--><g id="link_MainScreen_Action"><path codeline="55" d="M789.47,202 C799.35,232.35 803.9999,246.6035 811.2699,268.9435 " fill="none" id="MainScreen-to-Action" style="stroke:#181818;stroke-width:1.0;stroke-dasharray:7.0,7.0;"></path><polygon fill="none" points="816.84,286.06,816.9754,267.0868,805.5644,270.8002,816.84,286.06" style="stroke:#181818;stroke-width:1.0;"></polygon></g><!--link MainScreen to PauseMenu--><g id="link_MainScreen_PauseMenu"><path codeline="58" d="M613.05,138.24 C500.43,165.76 341.33,208.94 207,261.67 C201.17,263.96 200.7163,264.0309 194.7763,266.6609 " fill="none" id="MainScreen-to-PauseMenu" style="stroke:#181818;stroke-width:1.0;"></path><polygon fill="#181818" points="189.29,269.09,199.1388,269.1039,193.8619,267.0657,195.9,261.7888,189.29,269.09" style="stroke:#181818;stroke-width:1.0;"></polygon></g><!--link MainScreen to AnswerButton--><g id="link_MainScreen_AnswerButton"><path codeline="61" d="M868.24,201.93 C885.13,220.05 900.66,240.14 912,261.67 C968.6,369.12 971.0298,510.5056 974.2798,585.3656 " fill="none" id="MainScreen-to-AnswerButton" style="stroke:#181818;stroke-width:1.0;"></path><polygon fill="#181818" points="974.54,591.36,978.1459,582.195,974.3231,586.3647,970.1534,582.542,974.54,591.36" style="stroke:#181818;stroke-width:1.0;"></polygon></g><!--link AnswerButton to MainScreen--><g id="link_AnswerButton_MainScreen"><path codeline="71" d="M998.1826,579.4583 C1007.8226,504.5983 1003.6,369.12 947,261.67 C935.66,240.14 924.2796,224.3837 906.9296,206.2637 " fill="none" id="AnswerButton-MainScreen" style="stroke:#181818;stroke-width:1.0;"></path><polygon fill="none" points="996.65,591.36,1001.3836,585.92,998.1826,579.4583,993.4491,584.8983,996.65,591.36" style="stroke:#181818;stroke-width:1.0;"></polygon><polygon fill="#181818" points="902.78,201.93,906.1152,211.197,906.238,205.5414,911.8935,205.6642,902.78,201.93" style="stroke:#181818;stroke-width:1.0;"></polygon><text fill="#000000" font-family="sans-serif" font-size="13" lengthAdjust="spacing" textLength="8" x="990.1477" y="580.5141">1</text><text fill="#000000" font-family="sans-serif" font-size="13" lengthAdjust="spacing" textLength="24" x="888.531" y="221.7196">0..1</text></g><!--link MainScreen to MathProblem--><g id="link_MainScreen_MathProblem"><path codeline="66" d="M602.4473,180.515 C546.7073,207.475 493.28,233.36 435,261.67 C429.36,264.41 428.9439,264.6022 423.0939,267.4522 " fill="none" id="MainScreen-MathProblem" style="stroke:#181818;stroke-width:1.0;"></path><polygon fill="none" points="613.25,175.29,606.107,174.3016,602.4473,180.515,609.5903,181.5034,613.25,175.29" style="stroke:#181818;stroke-width:1.0;"></polygon><polygon fill="#181818" points="417.7,270.08,427.5428,269.7342,422.1949,267.8902,424.039,262.5423,417.7,270.08" style="stroke:#181818;stroke-width:1.0;"></polygon><text fill="#000000" font-family="sans-serif" font-size="13" lengthAdjust="spacing" textLength="8" x="597.5801" y="175.6322">1</text><text fill="#000000" font-family="sans-serif" font-size="13" lengthAdjust="spacing" textLength="8" x="423.8947" y="258.6302">1</text></g><!--link MainScreen to Counter--><g id="link_MainScreen_Counter"><path codeline="67" d="M651.8634,210.4438 C628.1634,233.9138 616.6326,245.3274 596.3926,265.3774 " fill="none" id="MainScreen-Counter" style="stroke:#181818;stroke-width:1.0;"></path><polygon fill="none" points="660.39,202,653.3121,203.3797,651.8634,210.4438,658.9413,209.0641,660.39,202" style="stroke:#181818;stroke-width:1.0;"></polygon><polygon fill="#181818" points="592.13,269.6,601.339,266.1079,595.6822,266.0812,595.7088,260.4244,592.13,269.6" style="stroke:#181818;stroke-width:1.0;"></polygon><text fill="#000000" font-family="sans-serif" font-size="13" lengthAdjust="spacing" textLength="8" x="644.928" y="221.7948">1</text><text fill="#000000" font-family="sans-serif" font-size="13" lengthAdjust="spacing" textLength="8" x="590.3358" y="258.778">1</text></g><!--link MainScreen to Button--><g id="link_MainScreen_Button"><path codeline="68" d="M734.4328,213.6878 C730.3228,233.4178 728.62,242.31 725,261.67 C713.91,320.99 703.9175,383.719 697.0675,428.489 " fill="none" id="MainScreen-Button" style="stroke:#181818;stroke-width:1.0;"></path><polygon fill="none" points="736.88,201.94,731.7405,206.9982,734.4328,213.6878,739.5723,208.6296,736.88,201.94" style="stroke:#181818;stroke-width:1.0;"></polygon><polygon fill="#181818" points="696.16,434.42,701.4752,426.1285,696.9162,429.4775,693.5672,424.9186,696.16,434.42" style="stroke:#181818;stroke-width:1.0;"></polygon><text fill="#000000" font-family="sans-serif" font-size="13" lengthAdjust="spacing" textLength="8" x="727.0353" y="221.7304">1</text><text fill="#000000" font-family="sans-serif" font-size="13" lengthAdjust="spacing" textLength="8" x="688.5846" y="423.919">1</text></g><!--link MainScreen to Emoji--><g id="link_MainScreen_Emoji"><path codeline="69" d="M913.1085,193.1982 C953.1185,216.5982 985.92,236.54 1025,261.67 C1036.71,269.2 1044.2211,274.24 1055.6611,282.28 " fill="none" id="MainScreen-Emoji" style="stroke:#181818;stroke-width:1.0;"></path><polygon fill="none" points="902.75,187.14,905.9098,193.6219,913.1085,193.1982,909.9486,186.7163,902.75,187.14" style="stroke:#181818;stroke-width:1.0;"></polygon><polygon fill="#181818" points="1060.57,285.73,1055.5066,277.2824,1056.4792,282.855,1050.9066,283.8276,1060.57,285.73" style="stroke:#181818;stroke-width:1.0;"></polygon><text fill="#000000" font-family="sans-serif" font-size="13" lengthAdjust="spacing" textLength="8" x="910.4199" y="188.0932">1</text><text fill="#000000" font-family="sans-serif" font-size="13" lengthAdjust="spacing" textLength="24" x="1026.0037" y="275.1772">1..3</text></g><!--link PauseMenu to Button--><g id="link_PauseMenu_Button"><path codeline="70" d="M200.4972,372.6461 C206.3672,375.1361 201.2,372.77 207,374.86 C341.72,423.35 499.8655,453.3513 597.6555,469.0113 " fill="none" id="PauseMenu-Button" style="stroke:#181818;stroke-width:1.0;"></path><polygon fill="none" points="189.45,367.96,193.4116,373.9855,200.4972,372.6461,196.5356,366.6207,189.45,367.96" style="stroke:#181818;stroke-width:1.0;"></polygon><polygon fill="#181818" points="603.58,469.96,595.3257,464.5872,598.6429,469.1694,594.0607,472.4866,603.58,469.96" style="stroke:#181818;stroke-width:1.0;"></polygon><text fill="#000000" font-family="sans-serif" font-size="13" lengthAdjust="spacing" textLength="8" x="197.0562" y="368.3947">1</text><text fill="#000000" font-family="sans-serif" font-size="13" lengthAdjust="spacing" textLength="24" x="572.1213" y="465.436">1..2</text></g><!--SRC=[VLFBRi8m4BpdAonEL2XHWPjLLQAeweaAYMFLWp4Bk4hir0yGAlttnh7ZE0cKYyFCxknuig4vKGgj2ECRAW4u-abGzKjHIOo25wEru1YvqpC5qSUr5DiS2bnrXZ-Ufi9m3HAZfNlmCE7g3D89gO_v9qQB2F55HrAMbzT2V36CwiFZYkm6wCHPV2C5Z1ymEWcsy_YEgJ8dbtSuUsSztfGxec53XOGnKqiX9L2DqLQ870XlQd-JXDRXhEsO5N0Jif6WJ74xd6_3z0rYudjkkBKT7JWCZh8DeqyaDp35Y74T8xCMcQ03S93L3Vkt3yB-pGHHQge8kAuJYOKOhtQYQ9YUxmFePTHdMTiPXhZRXnavsKAEqKPBnW_DJb3DR52B-cpUAiYza8N3Ok_CUjuJ2hxUI__JuOp4UzRDCOvnk0XUNK5UeKvaA5xlOr2rxi8Tgvh4JtswfcdNHv94troMNP-RIoKT9asVe_qRSZtDRi5eEaB2Ljc7U9dk5ZMBSRUWcNIRpxBvo0MIjAOx_AoLw5XlYnwph7RRwFy1]--></g></svg>