<?xml version="1.0" encoding="UTF-8" standalone="no"?>
<!DOCTYPE svg PUBLIC "-//W3C//DTD SVG 1.1//EN" "http://www.w3.org/Graphics/SVG/1.1/DTD/svg11.dtd">
<!-- Generated by Microsoft Visio, SVG Export sequence_v3.svg sequence_v3 -->
<svg xmlns="http://www.w3.org/2000/svg" xmlns:xlink="http://www.w3.org/1999/xlink" xmlns:ev="http://www.w3.org/2001/xml-events"
		xmlns:v="http://schemas.microsoft.com/visio/2003/SVGExtensions/" width="9.82292in" height="15.9062in"
		viewBox="0 0 707.25 1145.25" xml:space="preserve" color-interpolation-filters="sRGB" class="st19">
	<v:documentProperties v:langID="1033" v:viewMarkup="false"/>

	<style type="text/css">
	<![CDATA[
		.st1 {fill:none;stroke:#33b2e2;stroke-linecap:butt;stroke-width:0.78125}
		.st2 {stroke:#c2c2c2;stroke-dasharray:3.125,1.5625;stroke-linecap:butt;stroke-width:0.78125}
		.st3 {fill:none;stroke:none;stroke-linecap:butt;stroke-width:0.75}
		.st4 {fill:#009fdb;font-family:Verdana;font-size:0.781242em}
		.st5 {fill:url(#grad0-29);stroke:#33b2e2;stroke-linecap:butt;stroke-width:0.78125}
		.st6 {fill:none}
		.st7 {stroke:#33b2e2;stroke-linecap:butt;stroke-width:0.78125}
		.st8 {fill:#ffffff;font-family:Verdana;font-size:0.781242em}
		.st9 {fill:#009fdb;stroke:#009fdb;stroke-linecap:butt;stroke-width:0.78125}
		.st10 {stroke:#009fdb;stroke-linecap:butt;stroke-width:2.34375}
		.st11 {fill:#5a5a5a;font-family:Verdana;font-size:0.781242em}
		.st12 {fill:url(#grad0-137);stroke:url(#grad0-137);stroke-linecap:butt;stroke-width:0.78125}
		.st13 {stroke:#959595;stroke-linecap:butt;stroke-width:0.78125}
		.st14 {fill:url(#grad0-137);stroke:#959595;stroke-linecap:butt;stroke-width:1.5625}
		.st15 {fill:#5a5a5a;font-family:Verdana;font-size:0.781242em;font-weight:bold}
		.st16 {fill:#f2f2f2;stroke:#959595;stroke-linecap:butt;stroke-width:0.78125}
		.st17 {fill:#0568ae;font-family:Verdana;font-size:0.781242em;font-weight:bold}
		.st18 {stroke:#33b2e2;stroke-dasharray:1.5625,0.78125;stroke-linecap:butt;stroke-width:0.78125}
		.st19 {fill:none;fill-rule:evenodd;font-size:12px;overflow:visible;stroke-linecap:square;stroke-miterlimit:3}
	]]>
	</style>

	<defs id="Patterns_And_Gradients">
		<linearGradient id="grad0-29" x1="0" y1="0" x2="1" y2="0" gradientTransform="rotate(90 0.5 0.5)">
			<stop offset="0" stop-color="#33b2e2" stop-opacity="1"/>
			<stop offset="1" stop-color="#009fdb" stop-opacity="1"/>
		</linearGradient>
		<linearGradient id="grad0-137" x1="0" y1="0" x2="1" y2="0" gradientTransform="rotate(90 0.5 0.5)">
			<stop offset="0" stop-color="#ffffff" stop-opacity="1"/>
			<stop offset="1" stop-color="#d2d2d2" stop-opacity="1"/>
		</linearGradient>
	</defs>
	<g v:mID="0" v:index="1" v:groupContext="foregroundPage">
		<title>sequence_v3</title>
		<v:pageProperties v:drawingScale="1" v:pageScale="1" v:drawingUnits="19" v:shadowOffsetX="9" v:shadowOffsetY="-9"/>
		<g id="shape2-1" v:mID="2" v:groupContext="shape" transform="translate(15.625,-486.339)">
			<title>Sheet.2</title>
			<path d="M0 1137.44 A7.81271 7.81271 -180 0 0 7.81 1145.25 L450.78 1145.25 A7.81271 7.81271 -180 0 0 458.59 1137.44 L458.59
						 769 A7.81271 7.81271 -180 0 0 450.78 761.19 L7.81 761.19 A7.81271 7.81271 -180 0 0 0 769 L0 1137.44 Z"
					class="st1"/>
		</g>
		<g id="shape3-3" v:mID="3" v:groupContext="shape" transform="translate(69.9219,-491.808)">
			<title>Sheet.3</title>
			<path d="M0 1137.44 A7.81271 7.81271 -180 0 0 7.81 1145.25 L388.67 1145.25 A7.81271 7.81271 -180 0 0 396.48 1137.44 L396.48
						 885.31 A7.81271 7.81271 -180 0 0 388.67 877.5 L7.81 877.5 A7.81271 7.81271 -180 0 0 -0 885.31 L0 1137.44
						 Z" class="st1"/>
		</g>
		<g id="shape4-5" v:mID="4" v:groupContext="shape" transform="translate(1188.22,78.8819) rotate(90)">
			<title>Sheet.4</title>
			<path d="M0 1145.25 L988.38 1145.25" class="st2"/>
		</g>
		<g id="shape5-8" v:mID="5" v:groupContext="shape" transform="translate(1267.52,78.8819) rotate(90)">
			<title>Sheet.5</title>
			<path d="M0 1145.25 L988.38 1145.25" class="st2"/>
		</g>
		<g id="shape6-11" v:mID="6" v:groupContext="shape" transform="translate(1400.72,78.8819) rotate(90)">
			<title>Sheet.6</title>
			<path d="M0 1145.25 L988.38 1145.25" class="st2"/>
		</g>
		<g id="shape7-14" v:mID="7" v:groupContext="shape" transform="translate(1541.34,78.8819) rotate(90)">
			<title>Sheet.7</title>
			<path d="M0 1145.25 L988.38 1145.25" class="st2"/>
		</g>
		<g id="shape8-17" v:mID="8" v:groupContext="shape" transform="translate(1672.59,78.8819) rotate(90)">
			<title>Sheet.8</title>
			<path d="M0 1145.25 L988.38 1145.25" class="st2"/>
		</g>
		<g id="shape9-20" v:mID="9" v:groupContext="shape" transform="translate(1790.56,78.8819) rotate(90)">
			<title>Sheet.9</title>
			<path d="M0 1145.25 L988.38 1145.25" class="st2"/>
		</g>
		<g id="shape10-23" v:mID="10" v:groupContext="shape" transform="translate(29.6875,-1072.02)">
			<title>Sheet.10</title>
			<desc>User</desc>
			<v:textBlock v:margins="rect(0,0,0,0)"/>
			<v:textRect cx="18.75" cy="1139.63" width="37.5" height="11.25"/>
			<rect x="0" y="1134" width="37.5" height="11.25" class="st3"/>
			<text x="0" y="1142.44" class="st4" v:langID="1033"><v:paragraph/><v:tabList/>User</text>		</g>
		<g id="shape11-26" v:mID="11" v:groupContext="shape" transform="translate(37.1094,-1124.16)">
			<title>Sheet.11</title>
			<ellipse cx="6.24998" cy="1139" rx="6.24998" ry="6.24997" class="st5"/>
		</g>
		<g id="shape12-30" v:mID="12" v:groupContext="shape" transform="translate(33.2031,-1091.34)">
			<title>Sheet.12</title>
			<path d="M10.16 1112.44 L10.16 1133.53 L10.16 1112.44 ZM0 1118.69 L20.31 1118.69 L0 1118.69 ZM10.16 1133.53 L0 1145.25
						 L10.16 1133.53 ZM10.16 1133.53 L20.31 1145.25 L10.16 1133.53 Z" class="st6"/>
			<path d="M10.16 1112.44 L10.16 1133.53M0 1118.69 L20.31 1118.69M10.16 1133.53 L0 1145.25M10.16 1133.53 L20.31 1145.25"
					class="st7"/>
		</g>
		<g id="shape13-33" v:mID="13" v:groupContext="shape" transform="translate(29.6875,-61.0059)">
			<title>Sheet.13</title>
			<desc>User</desc>
			<v:textBlock v:margins="rect(0,0,0,0)"/>
			<v:textRect cx="18.75" cy="1139.62" width="37.5" height="11.25"/>
			<rect x="0" y="1134" width="37.5" height="11.25" class="st3"/>
			<text x="0" y="1142.44" class="st4" v:langID="1033"><v:paragraph/><v:tabList/>User</text>		</g>
		<g id="shape14-36" v:mID="14" v:groupContext="shape" transform="translate(37.1094,-42.0762)">
			<title>Sheet.14</title>
			<ellipse cx="6.24998" cy="1139" rx="6.24998" ry="6.24997" class="st5"/>
		</g>
		<g id="shape15-39" v:mID="15" v:groupContext="shape" transform="translate(33.2031,-9.2637)">
			<title>Sheet.15</title>
			<path d="M10.16 1112.44 L10.16 1133.53 L10.16 1112.44 ZM0 1118.69 L20.31 1118.69 L0 1118.69 ZM10.16 1133.53 L0 1145.25
						 L10.16 1133.53 ZM10.16 1133.53 L20.31 1145.25 L10.16 1133.53 Z" class="st6"/>
			<path d="M10.16 1112.44 L10.16 1133.53M0 1118.69 L20.31 1118.69M10.16 1133.53 L0 1145.25M10.16 1133.53 L20.31 1145.25"
					class="st7"/>
		</g>
		<g id="shape16-42" v:mID="16" v:groupContext="shape" transform="translate(101.172,-1067.15)">
			<title>Sheet.16</title>
			<path d="M0 1137.44 A7.81271 7.81271 -180 0 0 7.81 1145.25 L34.37 1145.25 A7.81271 7.81271 -180 0 0 42.19 1137.44 L42.19
						 1118.71 A7.81271 7.81271 -180 0 0 34.37 1110.9 L7.81 1110.9 A7.81271 7.81271 -180 0 0 -0 1118.71 L0 1137.44
						 Z" class="st5"/>
		</g>
		<g id="shape17-45" v:mID="17" v:groupContext="shape" transform="translate(112.891,-1078.27)">
			<title>Sheet.17</title>
			<desc>App</desc>
			<v:textBlock v:margins="rect(0,0,0,0)"/>
			<v:textRect cx="14.0625" cy="1139.62" width="28.13" height="11.25"/>
			<rect x="0" y="1134" width="28.125" height="11.25" class="st3"/>
			<text x="0" y="1142.44" class="st8" v:langID="1033"><v:paragraph/><v:tabList/>App</text>		</g>
		<g id="shape18-48" v:mID="18" v:groupContext="shape" transform="translate(101.172,-44.4199)">
			<title>Sheet.18</title>
			<path d="M0 1137.44 A7.81271 7.81271 -180 0 0 7.81 1145.25 L34.37 1145.25 A7.81271 7.81271 -180 0 0 42.19 1137.44 L42.19
						 1118.71 A7.81271 7.81271 -180 0 0 34.37 1110.9 L7.81 1110.9 A7.81271 7.81271 -180 0 0 0 1118.71 L0 1137.44
						 Z" class="st5"/>
		</g>
		<g id="shape19-51" v:mID="19" v:groupContext="shape" transform="translate(112.891,-55.5372)">
			<title>Sheet.19</title>
			<desc>App</desc>
			<v:textBlock v:margins="rect(0,0,0,0)"/>
			<v:textRect cx="14.0625" cy="1139.62" width="28.13" height="11.25"/>
			<rect x="0" y="1134" width="28.125" height="11.25" class="st3"/>
			<text x="0" y="1142.44" class="st8" v:langID="1033"><v:paragraph/><v:tabList/>App</text>		</g>
		<g id="shape20-54" v:mID="20" v:groupContext="shape" transform="translate(209.375,-1067.15)">
			<title>Sheet.20</title>
			<path d="M0 1137.44 A7.81271 7.81271 -180 0 0 7.81 1145.25 L85.16 1145.25 A7.81271 7.81271 -180 0 0 92.97 1137.44 L92.97
						 1118.71 A7.81271 7.81271 -180 0 0 85.16 1110.9 L7.81 1110.9 A7.81271 7.81271 -180 0 0 0 1118.71 L0 1137.44
						 Z" class="st5"/>
		</g>
		<g id="shape21-57" v:mID="21" v:groupContext="shape" transform="translate(221.094,-1078.27)">
			<title>Sheet.21</title>
			<desc>StartingScreen</desc>
			<v:textBlock v:margins="rect(0,0,0,0)"/>
			<v:textRect cx="65.625" cy="1139.62" width="131.25" height="11.25"/>
			<rect x="0" y="1134" width="131.25" height="11.25" class="st3"/>
			<text x="0" y="1142.44" class="st8" v:langID="1033"><v:paragraph/><v:tabList/>StartingScreen</text>		</g>
		<g id="shape22-60" v:mID="22" v:groupContext="shape" transform="translate(209.375,-44.4199)">
			<title>Sheet.22</title>
			<path d="M0 1137.44 A7.81271 7.81271 -180 0 0 7.81 1145.25 L85.16 1145.25 A7.81271 7.81271 -180 0 0 92.97 1137.44 L92.97
						 1118.71 A7.81271 7.81271 -180 0 0 85.16 1110.9 L7.81 1110.9 A7.81271 7.81271 -180 0 0 -0 1118.71 L0 1137.44
						 Z" class="st5"/>
		</g>
		<g id="shape23-63" v:mID="23" v:groupContext="shape" transform="translate(221.094,-55.5372)">
			<title>Sheet.23</title>
			<desc>StartingScreen</desc>
			<v:textBlock v:margins="rect(0,0,0,0)"/>
			<v:textRect cx="65.625" cy="1139.62" width="131.25" height="11.25"/>
			<rect x="0" y="1134" width="131.25" height="11.25" class="st3"/>
			<text x="0" y="1142.44" class="st8" v:langID="1033"><v:paragraph/><v:tabList/>StartingScreen</text>		</g>
		<g id="shape24-66" v:mID="24" v:groupContext="shape" transform="translate(357.031,-1067.15)">
			<title>Sheet.24</title>
			<path d="M0 1137.44 A7.81271 7.81271 -180 0 0 7.81 1145.25 L70.31 1145.25 A7.81271 7.81271 -180 0 0 78.13 1137.44 L78.13
						 1118.71 A7.81271 7.81271 -180 0 0 70.31 1110.9 L7.81 1110.9 A7.81271 7.81271 -180 0 0 0 1118.71 L0 1137.44
						 Z" class="st5"/>
		</g>
		<g id="shape25-69" v:mID="25" v:groupContext="shape" transform="translate(368.75,-1078.27)">
			<title>Sheet.25</title>
			<desc>MainScreen</desc>
			<v:textBlock v:margins="rect(0,0,0,0)"/>
			<v:textRect cx="46.875" cy="1139.62" width="93.76" height="11.25"/>
			<rect x="0" y="1134" width="93.75" height="11.25" class="st3"/>
			<text x="0" y="1142.44" class="st8" v:langID="1033"><v:paragraph/><v:tabList/>MainScreen</text>		</g>
		<g id="shape26-72" v:mID="26" v:groupContext="shape" transform="translate(357.031,-44.4199)">
			<title>Sheet.26</title>
			<path d="M-0 1137.44 A7.81271 7.81271 -180 0 0 7.81 1145.25 L70.31 1145.25 A7.81271 7.81271 -180 0 0 78.13 1137.44 L78.13
						 1118.71 A7.81271 7.81271 -180 0 0 70.31 1110.9 L7.81 1110.9 A7.81271 7.81271 -180 0 0 0 1118.71 L0 1137.44
						 Z" class="st5"/>
		</g>
		<g id="shape27-75" v:mID="27" v:groupContext="shape" transform="translate(368.75,-55.5372)">
			<title>Sheet.27</title>
			<desc>MainScreen</desc>
			<v:textBlock v:margins="rect(0,0,0,0)"/>
			<v:textRect cx="46.875" cy="1139.62" width="93.76" height="11.25"/>
			<rect x="0" y="1134" width="93.75" height="11.25" class="st3"/>
			<text x="0" y="1142.44" class="st8" v:langID="1033"><v:paragraph/><v:tabList/>MainScreen</text>		</g>
		<g id="shape28-78" v:mID="28" v:groupContext="shape" transform="translate(489.844,-1067.15)">
			<title>Sheet.28</title>
			<path d="M0 1137.44 A7.81271 7.81271 -180 0 0 7.81 1145.25 L67.97 1145.25 A7.81271 7.81271 -180 0 0 75.78 1137.44 L75.78
						 1118.71 A7.81271 7.81271 -180 0 0 67.97 1110.9 L7.81 1110.9 A7.81271 7.81271 -180 0 0 0 1118.71 L0 1137.44
						 Z" class="st5"/>
		</g>
		<g id="shape29-81" v:mID="29" v:groupContext="shape" transform="translate(501.563,-1078.27)">
			<title>Sheet.29</title>
			<desc>PauseMenu</desc>
			<v:textBlock v:margins="rect(0,0,0,0)"/>
			<v:textRect cx="42.1875" cy="1139.62" width="84.38" height="11.25"/>
			<rect x="0" y="1134" width="84.375" height="11.25" class="st3"/>
			<text x="0" y="1142.44" class="st8" v:langID="1033"><v:paragraph/><v:tabList/>PauseMenu</text>		</g>
		<g id="shape30-84" v:mID="30" v:groupContext="shape" transform="translate(489.844,-44.4199)">
			<title>Sheet.30</title>
			<path d="M0 1137.44 A7.81271 7.81271 -180 0 0 7.81 1145.25 L67.97 1145.25 A7.81271 7.81271 -180 0 0 75.78 1137.44 L75.78
						 1118.71 A7.81271 7.81271 -180 0 0 67.97 1110.9 L7.81 1110.9 A7.81271 7.81271 -180 0 0 0 1118.71 L0 1137.44
						 Z" class="st5"/>
		</g>
		<g id="shape31-87" v:mID="31" v:groupContext="shape" transform="translate(501.563,-55.5372)">
			<title>Sheet.31</title>
			<desc>PauseMenu</desc>
			<v:textBlock v:margins="rect(0,0,0,0)"/>
			<v:textRect cx="42.1875" cy="1139.62" width="84.38" height="11.25"/>
			<rect x="0" y="1134" width="84.375" height="11.25" class="st3"/>
			<text x="0" y="1142.44" class="st8" v:langID="1033"><v:paragraph/><v:tabList/>PauseMenu</text>		</g>
		<g id="shape32-90" v:mID="32" v:groupContext="shape" transform="translate(620.312,-1067.15)">
			<title>Sheet.32</title>
			<path d="M0 1137.44 A7.81271 7.81271 -180 0 0 7.81 1145.25 L42.97 1145.25 A7.81271 7.81271 -180 0 0 50.78 1137.44 L50.78
						 1118.71 A7.81271 7.81271 -180 0 0 42.97 1110.9 L7.81 1110.9 A7.81271 7.81271 -180 0 0 -0 1118.71 L0 1137.44
						 Z" class="st5"/>
		</g>
		<g id="shape33-93" v:mID="33" v:groupContext="shape" transform="translate(632.031,-1078.27)">
			<title>Sheet.33</title>
			<desc>Game</desc>
			<v:textBlock v:margins="rect(0,0,0,0)"/>
			<v:textRect cx="18.75" cy="1139.62" width="37.51" height="11.25"/>
			<rect x="0" y="1134" width="37.5" height="11.25" class="st3"/>
			<text x="0" y="1142.44" class="st8" v:langID="1033"><v:paragraph/><v:tabList/>Game</text>		</g>
		<g id="shape34-96" v:mID="34" v:groupContext="shape" transform="translate(620.312,-44.4199)">
			<title>Sheet.34</title>
			<path d="M-0 1137.44 A7.81271 7.81271 -180 0 0 7.81 1145.25 L42.97 1145.25 A7.81271 7.81271 -180 0 0 50.78 1137.44 L50.78
						 1118.71 A7.81271 7.81271 -180 0 0 42.97 1110.9 L7.81 1110.9 A7.81271 7.81271 -180 0 0 0 1118.71 L0 1137.44
						 Z" class="st5"/>
		</g>
		<g id="shape35-99" v:mID="35" v:groupContext="shape" transform="translate(632.031,-55.5372)">
			<title>Sheet.35</title>
			<desc>Game</desc>
			<v:textBlock v:margins="rect(0,0,0,0)"/>
			<v:textRect cx="18.75" cy="1139.62" width="37.51" height="11.25"/>
			<rect x="0" y="1134" width="37.5" height="11.25" class="st3"/>
			<text x="0" y="1142.44" class="st8" v:langID="1033"><v:paragraph/><v:tabList/>Game</text>		</g>
		<g id="shape36-102" v:mID="36" v:groupContext="shape" transform="translate(112.891,-1027.33)">
			<title>Sheet.36</title>
			<path d="M0 1139 L7.81 1142.12 L0 1145.25 L3.13 1142.12 L0 1139 Z" class="st9"/>
		</g>
		<g id="shape37-104" v:mID="37" v:groupContext="shape" transform="translate(43.3594,-1030.46)">
			<title>Sheet.37</title>
			<path d="M0 1145.25 L74.22 1145.25" class="st10"/>
		</g>
		<g id="shape38-107" v:mID="38" v:groupContext="shape" transform="translate(55.0781,-1037.67)">
			<title>Sheet.38</title>
			<desc>startApp()</desc>
			<v:textBlock v:margins="rect(0,0,0,0)"/>
			<v:textRect cx="46.875" cy="1139.62" width="93.76" height="11.25"/>
			<rect x="0" y="1134" width="93.75" height="11.25" class="st3"/>
			<text x="0" y="1142.44" class="st11" v:langID="1033"><v:paragraph/><v:tabList/>startApp()</text>		</g>
		<g id="shape39-110" v:mID="39" v:groupContext="shape" transform="translate(246.484,-992.98)">
			<title>Sheet.39</title>
			<path d="M0 1139 L7.81 1142.13 L0 1145.25 L3.13 1142.13 L0 1139 Z" class="st9"/>
		</g>
		<g id="shape40-112" v:mID="40" v:groupContext="shape" transform="translate(122.266,-996.104)">
			<title>Sheet.40</title>
			<path d="M0 1145.25 L128.91 1145.25" class="st10"/>
		</g>
		<g id="shape41-115" v:mID="41" v:groupContext="shape" transform="translate(133.984,-1003.32)">
			<title>Sheet.41</title>
			<desc>showStartingScreen()</desc>
			<v:textBlock v:margins="rect(0,0,0,0)"/>
			<v:textRect cx="93.75" cy="1139.62" width="187.5" height="11.25"/>
			<rect x="0" y="1134" width="187.5" height="11.25" class="st3"/>
			<text x="0" y="1142.44" class="st11" v:langID="1033"><v:paragraph/><v:tabList/>showStartingScreen()</text>		</g>
		<g id="shape42-118" v:mID="42" v:groupContext="shape" transform="translate(246.484,-958.629)">
			<title>Sheet.42</title>
			<path d="M0 1139 L7.81 1142.13 L0 1145.25 L3.13 1142.13 L0 1139 Z" class="st9"/>
		</g>
		<g id="shape43-120" v:mID="43" v:groupContext="shape" transform="translate(43.3594,-961.754)">
			<title>Sheet.43</title>
			<path d="M0 1145.25 L207.81 1145.25" class="st10"/>
		</g>
		<g id="shape44-123" v:mID="44" v:groupContext="shape" transform="translate(55.0781,-968.965)">
			<title>Sheet.44</title>
			<desc>tapToBegin()</desc>
			<v:textBlock v:margins="rect(0,0,0,0)"/>
			<v:textRect cx="56.25" cy="1139.62" width="112.51" height="11.25"/>
			<rect x="0" y="1134" width="112.5" height="11.25" class="st3"/>
			<text x="0" y="1142.44" class="st11" v:langID="1033"><v:paragraph/><v:tabList/>tapToBegin()</text>		</g>
		<g id="shape45-126" v:mID="45" v:groupContext="shape" transform="translate(386.719,-924.278)">
			<title>Sheet.45</title>
			<path d="M0 1139 L7.81 1142.12 L0 1145.25 L3.13 1142.12 L0 1139 Z" class="st9"/>
		</g>
		<g id="shape46-128" v:mID="46" v:groupContext="shape" transform="translate(122.266,-927.403)">
			<title>Sheet.46</title>
			<path d="M0 1145.25 L269.14 1145.25" class="st10"/>
		</g>
		<g id="shape47-131" v:mID="47" v:groupContext="shape" transform="translate(133.984,-934.614)">
			<title>Sheet.47</title>
			<desc>showMainScreen()</desc>
			<v:textBlock v:margins="rect(0,0,0,0)"/>
			<v:textRect cx="75" cy="1139.63" width="150" height="11.25"/>
			<rect x="0" y="1134" width="150" height="11.25" class="st3"/>
			<text x="0" y="1142.44" class="st11" v:langID="1033"><v:paragraph/><v:tabList/>showMainScreen()</text>		</g>
		<g id="shape48-134" v:mID="48" v:groupContext="shape" transform="translate(7.81252,-896.947)">
			<title>Sheet.48</title>
			<path d="M0 1144.08 A7.81271 1.1719 -180 0 0 7.81 1145.25 L682.81 1145.25 A7.81271 1.1719 -180 0 0 690.62 1144.08 A7.81271
						 1.1719 -180 0 0 682.81 1142.91 L7.81 1142.91 A7.81271 1.1719 -180 0 0 -0 1144.08 Z" class="st12"/>
		</g>
		<g id="shape49-139" v:mID="49" v:groupContext="shape" transform="translate(7.81252,-899.291)">
			<title>Sheet.49</title>
			<path d="M0 1145.25 L690.62 1145.25" class="st13"/>
		</g>
		<g id="shape50-142" v:mID="50" v:groupContext="shape" transform="translate(7.81252,-896.947)">
			<title>Sheet.50</title>
			<path d="M0 1145.25 L690.62 1145.25" class="st13"/>
		</g>
		<g id="shape51-145" v:mID="51" v:groupContext="shape" transform="translate(308.984,-883.678)">
			<title>Sheet.51</title>
			<path d="M0 1137.44 A7.81271 7.81271 -180 0 0 7.81 1145.25 L80.47 1145.25 A7.81271 7.81271 -180 0 0 88.28 1137.44 L88.28
						 1123.4 A7.81271 7.81271 -180 0 0 80.47 1115.59 L7.81 1115.59 A7.81271 7.81271 -180 0 0 0 1123.4 L0 1137.44
						 Z" class="st14"/>
		</g>
		<g id="shape52-148" v:mID="52" v:groupContext="shape" transform="translate(319.922,-892.451)">
			<title>Sheet.52</title>
			<desc>Game Loop</desc>
			<v:textBlock v:margins="rect(0,0,0,0)"/>
			<v:textRect cx="42.1875" cy="1139.62" width="84.38" height="11.25"/>
			<rect x="0" y="1134" width="84.375" height="11.25" class="st3"/>
			<text x="0" y="1142.44" class="st15" v:langID="1033"><v:paragraph/><v:tabList/>Game Loop</text>		</g>
		<g id="shape53-151" v:mID="53" v:groupContext="shape" transform="translate(15.625,-845.421)">
			<title>Sheet.53</title>
			<path d="M7.81 1120.27 L71.88 1120.27 L71.88 1137.44 L64.06 1145.25 L0 1145.25 L0 1128.09 A7.81252 7.81253 0 0 1 7.81
						 1120.27 Z" class="st16"/>
		</g>
		<g id="shape54-153" v:mID="54" v:groupContext="shape" transform="translate(15.625,-486.339)">
			<title>Sheet.54</title>
			<path d="M0 1137.44 A7.81271 7.81271 -180 0 0 7.81 1145.25 L450.78 1145.25 A7.81271 7.81271 -180 0 0 458.59 1137.44 L458.59
						 769 A7.81271 7.81271 -180 0 0 450.78 761.19 L7.81 761.19 A7.81271 7.81271 -180 0 0 0 769 L0 1137.44 Z"
					class="st1"/>
		</g>
		<g id="shape55-155" v:mID="55" v:groupContext="shape" transform="translate(33.5938,-851.851)">
			<title>Sheet.55</title>
			<desc>loop</desc>
			<v:textBlock v:margins="rect(0,0,0,0)"/>
			<v:textRect cx="18.75" cy="1139.62" width="37.5" height="11.25"/>
			<rect x="0" y="1134" width="37.5" height="11.25" class="st3"/>
			<text x="0" y="1142.44" class="st17" v:langID="1033"><v:paragraph/><v:tabList/>loop</text>		</g>
		<g id="shape56-158" v:mID="56" v:groupContext="shape" transform="translate(105.469,-851.069)">
			<title>Sheet.56</title>
			<desc>[playGameTill15Questions()]</desc>
			<v:textBlock v:margins="rect(0,0,0,0)"/>
			<v:textRect cx="79.6875" cy="1139.63" width="159.38" height="11.25"/>
			<rect x="0" y="1134" width="159.375" height="11.25" class="st3"/>
			<text x="0" y="1142.44" class="st15" v:langID="1033"><v:paragraph/><v:tabList/>[playGameTill15Questions()]</text>		</g>
		<g id="shape57-161" v:mID="57" v:groupContext="shape" transform="translate(386.719,-802.501)">
			<title>Sheet.57</title>
			<path d="M0 1139 L7.81 1142.12 L0 1145.25 L3.13 1142.12 L0 1139 Z" class="st9"/>
		</g>
		<g id="shape58-163" v:mID="58" v:groupContext="shape" transform="translate(122.266,-805.626)">
			<title>Sheet.58</title>
			<path d="M0 1145.25 L269.14 1145.25" class="st10"/>
		</g>
		<g id="shape59-166" v:mID="59" v:groupContext="shape" transform="translate(133.984,-812.837)">
			<title>Sheet.59</title>
			<desc>displayMathProblem()</desc>
			<v:textBlock v:margins="rect(0,0,0,0)"/>
			<v:textRect cx="93.75" cy="1139.62" width="187.5" height="11.25"/>
			<rect x="0" y="1134" width="187.5" height="11.25" class="st3"/>
			<text x="0" y="1142.44" class="st11" v:langID="1033"><v:paragraph/><v:tabList/>displayMathProblem()</text>		</g>
		<g id="shape60-169" v:mID="60" v:groupContext="shape" transform="translate(386.719,-768.15)">
			<title>Sheet.60</title>
			<path d="M0 1139 L7.81 1142.12 L0 1145.25 L3.13 1142.12 L0 1139 Z" class="st9"/>
		</g>
		<g id="shape61-171" v:mID="61" v:groupContext="shape" transform="translate(43.3594,-771.275)">
			<title>Sheet.61</title>
			<path d="M0 1145.25 L348.05 1145.25" class="st10"/>
		</g>
		<g id="shape62-174" v:mID="62" v:groupContext="shape" transform="translate(55.0781,-778.486)">
			<title>Sheet.62</title>
			<desc>selectAnswer()</desc>
			<v:textBlock v:margins="rect(0,0,0,0)"/>
			<v:textRect cx="65.625" cy="1139.62" width="131.25" height="11.25"/>
			<rect x="0" y="1134" width="131.25" height="11.25" class="st3"/>
			<text x="0" y="1142.44" class="st11" v:langID="1033"><v:paragraph/><v:tabList/>selectAnswer()</text>		</g>
		<g id="shape63-177" v:mID="63" v:groupContext="shape" transform="translate(69.9219,-734.581)">
			<title>Sheet.63</title>
			<path d="M7.81 1120.27 L63.28 1120.27 L63.28 1137.44 L55.47 1145.25 L0 1145.25 L0 1128.09 A7.81252 7.81253 0 0 1 7.81
						 1120.27 Z" class="st16"/>
		</g>
		<g id="shape64-179" v:mID="64" v:groupContext="shape" transform="translate(69.9219,-491.808)">
			<title>Sheet.64</title>
			<path d="M0 1137.44 A7.81271 7.81271 -180 0 0 7.81 1145.25 L388.67 1145.25 A7.81271 7.81271 -180 0 0 396.48 1137.44 L396.48
						 885.31 A7.81271 7.81271 -180 0 0 388.67 877.5 L7.81 877.5 A7.81271 7.81271 -180 0 0 -0 885.31 L0 1137.44
						 Z" class="st1"/>
		</g>
		<g id="shape65-181" v:mID="65" v:groupContext="shape" transform="translate(87.8906,-741.011)">
			<title>Sheet.65</title>
			<desc>alt</desc>
			<v:textBlock v:margins="rect(0,0,0,0)"/>
			<v:textRect cx="14.0625" cy="1139.62" width="28.13" height="11.25"/>
			<rect x="0" y="1134" width="28.125" height="11.25" class="st3"/>
			<text x="0" y="1142.44" class="st17" v:langID="1033"><v:paragraph/><v:tabList/>alt</text>		</g>
		<g id="shape66-184" v:mID="66" v:groupContext="shape" transform="translate(151.172,-740.23)">
			<title>Sheet.66</title>
			<desc>[correctAnswer()]</desc>
			<v:textBlock v:margins="rect(0,0,0,0)"/>
			<v:textRect cx="79.6875" cy="1139.62" width="159.38" height="11.25"/>
			<rect x="0" y="1134" width="159.375" height="11.25" class="st3"/>
			<text x="0" y="1142.44" class="st15" v:langID="1033"><v:paragraph/><v:tabList/>[correctAnswer()]</text>		</g>
		<g id="shape67-187" v:mID="67" v:groupContext="shape" transform="translate(123.047,-691.661)">
			<title>Sheet.67</title>
			<path d="M7.81 1139 L0 1142.12 L7.81 1145.25 L4.69 1142.12 L7.81 1139 Z" class="st9"/>
		</g>
		<g id="shape68-189" v:mID="68" v:groupContext="shape" transform="translate(126.172,-694.786)">
			<title>Sheet.68</title>
			<path d="M0 1145.25 L269.14 1145.25" class="st10"/>
		</g>
		<g id="shape69-192" v:mID="69" v:groupContext="shape" transform="translate(141.797,-701.997)">
			<title>Sheet.69</title>
			<desc>displayHappyEmoji()</desc>
			<v:textBlock v:margins="rect(0,0,0,0)"/>
			<v:textRect cx="89.0625" cy="1139.62" width="178.13" height="11.25"/>
			<rect x="0" y="1134" width="178.125" height="11.25" class="st3"/>
			<text x="0" y="1142.44" class="st11" v:langID="1033"><v:paragraph/><v:tabList/>displayHappyEmoji()</text>		</g>
		<g id="shape70-195" v:mID="70" v:groupContext="shape" transform="translate(123.047,-657.311)">
			<title>Sheet.70</title>
			<path d="M7.81 1139 L0 1142.13 L7.81 1145.25 L4.69 1142.13 L7.81 1139 Z" class="st9"/>
		</g>
		<g id="shape71-197" v:mID="71" v:groupContext="shape" transform="translate(126.172,-660.436)">
			<title>Sheet.71</title>
			<path d="M0 1145.25 L269.14 1145.25" class="st10"/>
		</g>
		<g id="shape72-200" v:mID="72" v:groupContext="shape" transform="translate(141.797,-667.647)">
			<title>Sheet.72</title>
			<desc>updateCounter()</desc>
			<v:textBlock v:margins="rect(0,0,0,0)"/>
			<v:textRect cx="70.3125" cy="1139.62" width="140.63" height="11.25"/>
			<rect x="0" y="1134" width="140.625" height="11.25" class="st3"/>
			<text x="0" y="1142.44" class="st11" v:langID="1033"><v:paragraph/><v:tabList/>updateCounter()</text>		</g>
		<g id="shape73-203" v:mID="73" v:groupContext="shape" transform="translate(386.719,-622.96)">
			<title>Sheet.73</title>
			<path d="M0 1139 L7.81 1142.13 L0 1145.25 L3.13 1142.13 L0 1139 Z" class="st9"/>
		</g>
		<g id="shape74-205" v:mID="74" v:groupContext="shape" transform="translate(122.266,-626.085)">
			<title>Sheet.74</title>
			<path d="M0 1145.25 L269.14 1145.25" class="st10"/>
		</g>
		<g id="shape75-208" v:mID="75" v:groupContext="shape" transform="translate(133.984,-633.296)">
			<title>Sheet.75</title>
			<desc>continueGameLoop()</desc>
			<v:textBlock v:margins="rect(0,0,0,0)"/>
			<v:textRect cx="84.375" cy="1139.62" width="168.75" height="11.25"/>
			<rect x="0" y="1134" width="168.75" height="11.25" class="st3"/>
			<text x="0" y="1142.44" class="st11" v:langID="1033"><v:paragraph/><v:tabList/>continueGameLoop()</text>		</g>
		<g id="shape76-211" v:mID="76" v:groupContext="shape" transform="translate(69.9219,-619.054)">
			<title>Sheet.76</title>
			<path d="M0 1145.25 L396.48 1145.25" class="st18"/>
		</g>
		<g id="shape77-214" v:mID="77" v:groupContext="shape" transform="translate(80.0781,-601.289)">
			<title>Sheet.77</title>
			<desc>[incorrectAnswer()]</desc>
			<v:textBlock v:margins="rect(0,0,0,0)"/>
			<v:textRect cx="89.0625" cy="1139.62" width="178.13" height="11.25"/>
			<rect x="0" y="1134" width="178.125" height="11.25" class="st3"/>
			<text x="0" y="1142.44" class="st15" v:langID="1033"><v:paragraph/><v:tabList/>[incorrectAnswer()]</text>		</g>
		<g id="shape78-217" v:mID="78" v:groupContext="shape" transform="translate(123.047,-563.634)">
			<title>Sheet.78</title>
			<path d="M7.81 1139 L0 1142.12 L7.81 1145.25 L4.69 1142.12 L7.81 1139 Z" class="st9"/>
		</g>
		<g id="shape79-219" v:mID="79" v:groupContext="shape" transform="translate(126.172,-566.759)">
			<title>Sheet.79</title>
			<path d="M0 1145.25 L269.14 1145.25" class="st10"/>
		</g>
		<g id="shape80-222" v:mID="80" v:groupContext="shape" transform="translate(141.797,-573.97)">
			<title>Sheet.80</title>
			<desc>displaySadEmoji()</desc>
			<v:textBlock v:margins="rect(0,0,0,0)"/>
			<v:textRect cx="79.6875" cy="1139.62" width="159.38" height="11.25"/>
			<rect x="0" y="1134" width="159.375" height="11.25" class="st3"/>
			<text x="0" y="1142.44" class="st11" v:langID="1033"><v:paragraph/><v:tabList/>displaySadEmoji()</text>		</g>
		<g id="shape81-225" v:mID="81" v:groupContext="shape" transform="translate(123.047,-529.283)">
			<title>Sheet.81</title>
			<path d="M7.81 1139 L0 1142.12 L7.81 1145.25 L4.69 1142.12 L7.81 1139 Z" class="st9"/>
		</g>
		<g id="shape82-227" v:mID="82" v:groupContext="shape" transform="translate(126.172,-532.408)">
			<title>Sheet.82</title>
			<path d="M0 1145.25 L269.14 1145.25" class="st10"/>
		</g>
		<g id="shape83-230" v:mID="83" v:groupContext="shape" transform="translate(141.797,-539.619)">
			<title>Sheet.83</title>
			<desc>displayCorrectAnswerButton()</desc>
			<v:textBlock v:margins="rect(0,0,0,0)"/>
			<v:textRect cx="131.25" cy="1139.62" width="262.51" height="11.25"/>
			<rect x="0" y="1134" width="262.5" height="11.25" class="st3"/>
			<text x="0" y="1142.44" class="st11" v:langID="1033"><v:paragraph/><v:tabList/>displayCorrectAnswerButton()</text>		</g>
		<g id="shape84-233" v:mID="84" v:groupContext="shape" transform="translate(386.719,-494.933)">
			<title>Sheet.84</title>
			<path d="M0 1139 L7.81 1142.13 L0 1145.25 L3.13 1142.13 L0 1139 Z" class="st9"/>
		</g>
		<g id="shape85-235" v:mID="85" v:groupContext="shape" transform="translate(122.266,-498.058)">
			<title>Sheet.85</title>
			<path d="M0 1145.25 L269.14 1145.25" class="st10"/>
		</g>
		<g id="shape86-238" v:mID="86" v:groupContext="shape" transform="translate(133.984,-505.269)">
			<title>Sheet.86</title>
			<desc>continueGameLoop()</desc>
			<v:textBlock v:margins="rect(0,0,0,0)"/>
			<v:textRect cx="84.375" cy="1139.63" width="168.75" height="11.25"/>
			<rect x="0" y="1134" width="168.75" height="11.25" class="st3"/>
			<text x="0" y="1142.44" class="st11" v:langID="1033"><v:paragraph/><v:tabList/>continueGameLoop()</text>		</g>
		<g id="shape87-241" v:mID="87" v:groupContext="shape" transform="translate(386.719,-449.645)">
			<title>Sheet.87</title>
			<path d="M0 1139 L7.81 1142.12 L0 1145.25 L3.13 1142.12 L0 1139 Z" class="st9"/>
		</g>
		<g id="shape88-243" v:mID="88" v:groupContext="shape" transform="translate(43.3594,-452.77)">
			<title>Sheet.88</title>
			<path d="M0 1145.25 L348.05 1145.25" class="st10"/>
		</g>
		<g id="shape89-246" v:mID="89" v:groupContext="shape" transform="translate(55.0781,-459.981)">
			<title>Sheet.89</title>
			<desc>tapPauseButton()</desc>
			<v:textBlock v:margins="rect(0,0,0,0)"/>
			<v:textRect cx="75" cy="1139.62" width="150" height="11.25"/>
			<rect x="0" y="1134" width="150" height="11.25" class="st3"/>
			<text x="0" y="1142.44" class="st11" v:langID="1033"><v:paragraph/><v:tabList/>tapPauseButton()</text>		</g>
		<g id="shape90-249" v:mID="90" v:groupContext="shape" transform="translate(518.359,-415.294)">
			<title>Sheet.90</title>
			<path d="M0 1139 L7.81 1142.13 L0 1145.25 L3.13 1142.13 L0 1139 Z" class="st9"/>
		</g>
		<g id="shape91-251" v:mID="91" v:groupContext="shape" transform="translate(122.266,-418.419)">
			<title>Sheet.91</title>
			<path d="M0 1145.25 L400.78 1145.25" class="st10"/>
		</g>
		<g id="shape92-254" v:mID="92" v:groupContext="shape" transform="translate(133.984,-425.63)">
			<title>Sheet.92</title>
			<desc>showPauseMenu()</desc>
			<v:textBlock v:margins="rect(0,0,0,0)"/>
			<v:textRect cx="70.3125" cy="1139.62" width="140.63" height="11.25"/>
			<rect x="0" y="1134" width="140.625" height="11.25" class="st3"/>
			<text x="0" y="1142.44" class="st11" v:langID="1033"><v:paragraph/><v:tabList/>showPauseMenu()</text>		</g>
		<g id="shape93-257" v:mID="93" v:groupContext="shape" transform="translate(518.359,-380.943)">
			<title>Sheet.93</title>
			<path d="M0 1139 L7.81 1142.13 L0 1145.25 L3.13 1142.13 L0 1139 Z" class="st9"/>
		</g>
		<g id="shape94-259" v:mID="94" v:groupContext="shape" transform="translate(43.3594,-384.068)">
			<title>Sheet.94</title>
			<path d="M0 1145.25 L479.69 1145.25" class="st10"/>
		</g>
		<g id="shape95-262" v:mID="95" v:groupContext="shape" transform="translate(55.0781,-391.279)">
			<title>Sheet.95</title>
			<desc>selectResume()</desc>
			<v:textBlock v:margins="rect(0,0,0,0)"/>
			<v:textRect cx="65.625" cy="1139.63" width="131.25" height="11.25"/>
			<rect x="0" y="1134" width="131.25" height="11.25" class="st3"/>
			<text x="0" y="1142.44" class="st11" v:langID="1033"><v:paragraph/><v:tabList/>selectResume()</text>		</g>
		<g id="shape96-265" v:mID="96" v:groupContext="shape" transform="translate(386.719,-346.593)">
			<title>Sheet.96</title>
			<path d="M0 1139 L7.81 1142.12 L0 1145.25 L3.13 1142.12 L0 1139 Z" class="st9"/>
		</g>
		<g id="shape97-267" v:mID="97" v:groupContext="shape" transform="translate(122.266,-349.718)">
			<title>Sheet.97</title>
			<path d="M0 1145.25 L269.14 1145.25" class="st10"/>
		</g>
		<g id="shape98-270" v:mID="98" v:groupContext="shape" transform="translate(133.984,-356.929)">
			<title>Sheet.98</title>
			<desc>resumeGameExecution()</desc>
			<v:textBlock v:margins="rect(0,0,0,0)"/>
			<v:textRect cx="98.4375" cy="1139.62" width="196.88" height="11.25"/>
			<rect x="0" y="1134" width="196.875" height="11.25" class="st3"/>
			<text x="0" y="1142.44" class="st11" v:langID="1033"><v:paragraph/><v:tabList/>resumeGameExecution()</text>		</g>
		<g id="shape99-273" v:mID="99" v:groupContext="shape" transform="translate(122.266,-315.367)">
			<title>Sheet.99</title>
			<path d="M0 1145.25 L32.81 1145.25" class="st10"/>
		</g>
		<g id="shape100-276" v:mID="100" v:groupContext="shape" transform="translate(1300.33,829.883) rotate(90)">
			<title>Sheet.100</title>
			<path d="M0 1145.25 L10.16 1145.25" class="st10"/>
		</g>
		<g id="shape101-279" v:mID="101" v:groupContext="shape" transform="translate(123.047,-305.211)">
			<title>Sheet.101</title>
			<path d="M0 1145.25 L32.03 1145.25" class="st10"/>
		</g>
		<g id="shape102-282" v:mID="102" v:groupContext="shape" transform="translate(123.047,-302.086)">
			<title>Sheet.102</title>
			<path d="M7.81 1139 L0 1142.12 L7.81 1145.25 L4.69 1142.12 L7.81 1139 Z" class="st9"/>
		</g>
		<g id="shape103-284" v:mID="103" v:groupContext="shape" transform="translate(133.984,-322.578)">
			<title>Sheet.103</title>
			<desc>continueGameLoop()</desc>
			<v:textBlock v:margins="rect(0,0,0,0)"/>
			<v:textRect cx="84.375" cy="1139.62" width="168.75" height="11.25"/>
			<rect x="0" y="1134" width="168.75" height="11.25" class="st3"/>
			<text x="0" y="1142.44" class="st11" v:langID="1033"><v:paragraph/><v:tabList/>continueGameLoop()</text>		</g>
		<g id="shape104-287" v:mID="104" v:groupContext="shape" transform="translate(518.359,-267.735)">
			<title>Sheet.104</title>
			<path d="M0 1139 L7.81 1142.13 L0 1145.25 L3.13 1142.13 L0 1139 Z" class="st9"/>
		</g>
		<g id="shape105-289" v:mID="105" v:groupContext="shape" transform="translate(43.3594,-270.86)">
			<title>Sheet.105</title>
			<path d="M0 1145.25 L479.69 1145.25" class="st10"/>
		</g>
		<g id="shape106-292" v:mID="106" v:groupContext="shape" transform="translate(55.0781,-278.071)">
			<title>Sheet.106</title>
			<desc>selectQuit()</desc>
			<v:textBlock v:margins="rect(0,0,0,0)"/>
			<v:textRect cx="56.25" cy="1139.62" width="112.51" height="11.25"/>
			<rect x="0" y="1134" width="112.5" height="11.25" class="st3"/>
			<text x="0" y="1142.44" class="st11" v:langID="1033"><v:paragraph/><v:tabList/>selectQuit()</text>		</g>
		<g id="shape107-295" v:mID="107" v:groupContext="shape" transform="translate(122.266,-236.51)">
			<title>Sheet.107</title>
			<path d="M0 1145.25 L32.81 1145.25" class="st10"/>
		</g>
		<g id="shape108-298" v:mID="108" v:groupContext="shape" transform="translate(1300.33,908.74) rotate(90)">
			<title>Sheet.108</title>
			<path d="M0 1145.25 L10.16 1145.25" class="st10"/>
		</g>
		<g id="shape109-301" v:mID="109" v:groupContext="shape" transform="translate(123.047,-226.354)">
			<title>Sheet.109</title>
			<path d="M0 1145.25 L32.03 1145.25" class="st10"/>
		</g>
		<g id="shape110-304" v:mID="110" v:groupContext="shape" transform="translate(123.047,-223.229)">
			<title>Sheet.110</title>
			<path d="M7.81 1139 L0 1142.12 L7.81 1145.25 L4.69 1142.12 L7.81 1139 Z" class="st9"/>
		</g>
		<g id="shape111-306" v:mID="111" v:groupContext="shape" transform="translate(133.984,-243.721)">
			<title>Sheet.111</title>
			<desc>endGameExecution()</desc>
			<v:textBlock v:margins="rect(0,0,0,0)"/>
			<v:textRect cx="84.375" cy="1139.62" width="168.75" height="11.25"/>
			<rect x="0" y="1134" width="168.75" height="11.25" class="st3"/>
			<text x="0" y="1142.44" class="st11" v:langID="1033"><v:paragraph/><v:tabList/>endGameExecution()</text>		</g>
		<g id="shape112-309" v:mID="112" v:groupContext="shape" transform="translate(7.81252,-195.897)">
			<title>Sheet.112</title>
			<path d="M0 1144.08 A7.81271 1.1719 -180 0 0 7.81 1145.25 L682.81 1145.25 A7.81271 1.1719 -180 0 0 690.62 1144.08 A7.81271
						 1.1719 -180 0 0 682.81 1142.91 L7.81 1142.91 A7.81271 1.1719 -180 0 0 -0 1144.08 Z" class="st12"/>
		</g>
		<g id="shape113-313" v:mID="113" v:groupContext="shape" transform="translate(7.81252,-198.241)">
			<title>Sheet.113</title>
			<path d="M0 1145.25 L690.62 1145.25" class="st13"/>
		</g>
		<g id="shape114-316" v:mID="114" v:groupContext="shape" transform="translate(7.81252,-195.897)">
			<title>Sheet.114</title>
			<path d="M0 1145.25 L690.62 1145.25" class="st13"/>
		</g>
		<g id="shape115-319" v:mID="115" v:groupContext="shape" transform="translate(299.219,-182.628)">
			<title>Sheet.115</title>
			<path d="M0 1137.44 A7.81271 7.81271 -180 0 0 7.81 1145.25 L100 1145.25 A7.81271 7.81271 -180 0 0 107.81 1137.44 L107.81
						 1123.4 A7.81271 7.81271 -180 0 0 100 1115.59 L7.81 1115.59 A7.81271 7.81271 -180 0 0 -0 1123.4 L0 1137.44
						 Z" class="st14"/>
		</g>
		<g id="shape116-322" v:mID="116" v:groupContext="shape" transform="translate(310.156,-191.401)">
			<title>Sheet.116</title>
			<desc>Game Finished</desc>
			<v:textBlock v:margins="rect(0,0,0,0)"/>
			<v:textRect cx="60.9375" cy="1139.62" width="121.88" height="11.25"/>
			<rect x="0" y="1134" width="121.875" height="11.25" class="st3"/>
			<text x="0" y="1142.44" class="st15" v:langID="1033"><v:paragraph/><v:tabList/>Game Finished</text>		</g>
		<g id="shape117-325" v:mID="117" v:groupContext="shape" transform="translate(122.266,-146.715)">
			<title>Sheet.117</title>
			<path d="M0 1145.25 L32.81 1145.25" class="st10"/>
		</g>
		<g id="shape118-328" v:mID="118" v:groupContext="shape" transform="translate(1300.33,998.535) rotate(90)">
			<title>Sheet.118</title>
			<path d="M0 1145.25 L10.16 1145.25" class="st10"/>
		</g>
		<g id="shape119-331" v:mID="119" v:groupContext="shape" transform="translate(123.047,-136.559)">
			<title>Sheet.119</title>
			<path d="M0 1145.25 L32.03 1145.25" class="st10"/>
		</g>
		<g id="shape120-334" v:mID="120" v:groupContext="shape" transform="translate(123.047,-133.434)">
			<title>Sheet.120</title>
			<path d="M7.81 1139 L0 1142.13 L7.81 1145.25 L4.69 1142.13 L7.81 1139 Z" class="st9"/>
		</g>
		<g id="shape121-336" v:mID="121" v:groupContext="shape" transform="translate(133.984,-153.926)">
			<title>Sheet.121</title>
			<desc>checkGameFinished()</desc>
			<v:textBlock v:margins="rect(0,0,0,0)"/>
			<v:textRect cx="89.0625" cy="1139.62" width="178.13" height="11.25"/>
			<rect x="0" y="1134" width="178.125" height="11.25" class="st3"/>
			<text x="0" y="1142.44" class="st11" v:langID="1033"><v:paragraph/><v:tabList/>checkGameFinished()</text>		</g>
		<g id="shape122-339" v:mID="122" v:groupContext="shape" transform="translate(122.266,-102.208)">
			<title>Sheet.122</title>
			<path d="M0 1145.25 L32.81 1145.25" class="st10"/>
		</g>
		<g id="shape123-342" v:mID="123" v:groupContext="shape" transform="translate(1300.33,1043.04) rotate(90)">
			<title>Sheet.123</title>
			<path d="M0 1145.25 L10.16 1145.25" class="st10"/>
		</g>
		<g id="shape124-345" v:mID="124" v:groupContext="shape" transform="translate(123.047,-92.0518)">
			<title>Sheet.124</title>
			<path d="M0 1145.25 L32.03 1145.25" class="st10"/>
		</g>
		<g id="shape125-348" v:mID="125" v:groupContext="shape" transform="translate(123.047,-88.9267)">
			<title>Sheet.125</title>
			<path d="M7.81 1139 L0 1142.12 L7.81 1145.25 L4.69 1142.12 L7.81 1139 Z" class="st9"/>
		</g>
		<g id="shape126-350" v:mID="126" v:groupContext="shape" transform="translate(133.984,-109.419)">
			<title>Sheet.126</title>
			<desc>displayGameResults()</desc>
			<v:textBlock v:margins="rect(0,0,0,0)"/>
			<v:textRect cx="93.75" cy="1139.62" width="187.5" height="11.25"/>
			<rect x="0" y="1134" width="187.5" height="11.25" class="st3"/>
			<text x="0" y="1142.44" class="st11" v:langID="1033"><v:paragraph/><v:tabList/>displayGameResults()</text>		</g>
	</g>
</svg>
